<svg xmlns="http://www.w3.org/2000/svg" width="14" height="14" fill="none" viewBox="0 0 14 14">
  <path fill="#2A72DB" d="M9 .81a.5.5 0 01.737.28l.37 1.195a.5.5 0 00.49.352l1.25-.03a.5.5 0 01.5.61l-.278 1.22a.5.5 0 00.248.55l1.099.598a.5.5 0 01.127.78l-.85.917a.5.5 0 00-.06.6l.652 1.068a.5.5 0 01-.28.738l-1.195.37a.5.5 0 00-.352.49l.031 1.25a.5.5 0 01-.61.5l-1.22-.278a.5.5 0 00-.55.248l-.6 1.099a.5.5 0 01-.778.127l-.917-.85a.5.5 0 00-.601-.06l-1.068.652a.5.5 0 01-.738-.28l-.37-1.195a.5.5 0 00-.49-.352l-1.25.031a.5.5 0 01-.5-.61l.278-1.22a.5.5 0 00-.248-.55L.73 8.46A.5.5 0 01.6 7.683l.85-.918a.5.5 0 00.06-.6L.86 5.096a.5.5 0 01.279-.738l1.195-.37a.5.5 0 00.352-.49l-.03-1.25a.5.5 0 01.61-.5l1.22.278a.5.5 0 00.55-.248L5.635.679a.5.5 0 01.779-.127l.917.85a.5.5 0 00.6.06L9 .812z"/>
  <path fill="#fff" fill-rule="evenodd" d="M9.852 5.145a.5.5 0 01.003.707L6.025 9.71l-2.38-2.394a.5.5 0 11.71-.705l1.67 1.68 3.12-3.142a.5.5 0 01.707-.003z" clip-rule="evenodd"/>
</svg>
